<?xml version="1.0" standalone="no"?>
<!DOCTYPE svg PUBLIC "-//W3C//DTD SVG 20010904//EN"
 "http://www.w3.org/TR/2001/REC-SVG-20010904/DTD/svg10.dtd">
<svg version="1.0" xmlns="http://www.w3.org/2000/svg"
 width="700.000000pt" height="700.000000pt" viewBox="0 0 700.000000 700.000000"
 preserveAspectRatio="xMidYMid meet">
<metadata>
Created by potrace 1.11, written by Peter Selinger 2001-2013
</metadata>
<g transform="translate(0.000000,700.000000) scale(0.100000,-0.100000)"
fill="#000000" stroke="none">
<path d="M580 6459 c-45 -10 -80 -50 -80 -94 0 -18 20 -89 44 -156 63 -178
287 -801 371 -1034 62 -172 123 -341 205 -570 39 -110 81 -225 92 -255 19 -52
62 -173 157 -440 23 -63 44 -122 48 -130 3 -8 7 -19 9 -25 4 -18 354 -989 369
-1025 8 -19 30 -82 50 -140 20 -58 55 -154 77 -215 22 -60 51 -144 65 -185 14
-41 29 -79 34 -85 5 -5 9 -17 9 -27 0 -9 7 -32 15 -50 8 -18 53 -139 99 -268
186 -518 281 -784 326 -910 72 -205 97 -240 200 -289 l55 -25 795 -2 c437 -1
809 0 826 3 50 8 88 51 118 133 15 41 34 91 41 110 7 19 49 136 94 260 176
496 213 597 231 645 29 76 472 1309 474 1320 1 6 10 27 19 49 9 21 17 41 17
45 0 3 32 94 71 201 39 107 72 200 73 205 2 6 6 17 9 25 4 8 38 105 78 215 39
110 100 281 136 380 76 208 133 366 173 480 29 84 292 814 437 1215 208 573
204 560 154 611 -26 25 -56 35 -101 31 -6 -1 -102 -10 -185 -17 -27 -3 -70 -7
-95 -10 -25 -3 -74 -7 -110 -10 -36 -3 -81 -7 -100 -10 -19 -2 -64 -7 -100
-10 -82 -7 -152 -14 -210 -20 -25 -3 -74 -7 -110 -10 -36 -3 -81 -7 -100 -10
-19 -2 -64 -7 -100 -10 -147 -13 -262 -24 -315 -30 -16 -2 -64 -6 -105 -10
-102 -9 -140 -20 -196 -58 -75 -51 -101 -92 -156 -248 -28 -79 -51 -148 -53
-154 -1 -5 -5 -17 -8 -25 -4 -8 -40 -112 -81 -230 -82 -239 -197 -567 -256
-735 -21 -60 -59 -171 -85 -245 -26 -74 -64 -184 -85 -245 -22 -60 -89 -254
-150 -430 -61 -176 -120 -345 -131 -375 -11 -30 -45 -130 -77 -222 -65 -192
-51 -195 -126 19 -24 71 -72 207 -106 303 -34 96 -81 231 -105 300 -24 69 -71
204 -105 300 -34 96 -65 186 -70 200 -4 14 -34 97 -65 185 -31 88 -65 185 -75
215 -17 52 -70 203 -210 600 -97 276 -141 403 -150 430 -77 237 -117 309 -199
362 -54 33 -91 44 -186 53 -73 6 -130 12 -205 20 -25 3 -74 7 -110 10 -36 3
-85 8 -110 11 -25 3 -70 7 -100 9 -30 3 -75 7 -100 10 -25 3 -72 7 -105 10
-33 3 -80 7 -105 10 -25 3 -72 7 -105 10 -33 3 -82 8 -110 10 -27 3 -71 8 -97
10 -27 3 -72 7 -100 10 -83 9 -137 14 -218 21 -41 3 -77 7 -80 8 -3 2 -21 -1
-40 -5z"/>
</g>
</svg>
