<?xml version="1.0" encoding="iso-8859-1"?>
<!-- Uploaded to: SVG Repo, www.svgrepo.com, Generator: SVG Repo Mixer Tools -->
<!DOCTYPE svg PUBLIC "-//W3C//DTD SVG 1.1//EN" "http://www.w3.org/Graphics/SVG/1.1/DTD/svg11.dtd">
<svg fill="#000000" height="800px" width="800px" version="1.1" id="Capa_1" xmlns="http://www.w3.org/2000/svg" xmlns:xlink="http://www.w3.org/1999/xlink" 
	 viewBox="0 0 240 240" xml:space="preserve">
<path d="M120,240c66.168,0,120-53.831,120-120S186.168,0,120,0S0,53.832,0,120S53.832,240,120,240z M120,30
	c49.626,0,90,40.374,90,90s-40.374,90-90,90s-90-40.374-90-90S70.374,30,120,30z M69.144,149.644L98.787,120L69.144,90.356
	l21.213-21.213L120,98.787l29.644-29.644l21.213,21.213L141.213,120l29.643,29.644l-21.213,21.213L120,141.213l-29.644,29.643
	L69.144,149.644z"/>
</svg>