<svg width="500" height="500" viewBox="0 0 500 500" fill="none" xmlns="http://www.w3.org/2000/svg">
<path fill="#536b8a" d="M 323.509,471.167 480.202,32.185 C 482.857,24.74 478.671,19.312 470.853,20.071 L 347.629,32.03 c -7.816,0.759 -16.259,7.44 -18.841,14.911 L 183.753,466.465 c -2.583,7.47 1.693,13.535 9.546,13.535 h 119.938 c 3.925,0 8.192,-3.02 9.52,-6.744 l 0.746,-2.089 v 0 0 z"/>
<path fill="#5d87be" d="M 30.055,20.07 152.165,32.029 c 7.745,0.76 16.122,7.438 18.692,14.905 l 146.766,426.302 c 1.284,3.735 -0.83,6.764 -4.721,6.764 H 193.294 c -7.781,0 -16.239,-6.044 -18.871,-13.489 L 20.791,32.185 c -2.633,-7.445 1.518,-12.874 9.264,-12.114 v 0 0 z"/>
</svg>
